<?xml version="1.0" encoding="iso-8859-1"?>
<!-- Generator: Adobe Illustrator 19.0.0, SVG Export Plug-In . SVG Version: 6.00 Build 0)  -->
<svg version="1.1" id="Capa_1" xmlns="http://www.w3.org/2000/svg" xmlns:xlink="http://www.w3.org/1999/xlink" x="0px" y="0px"
	 viewBox="0 0 512 512" style="enable-background:new 0 0 512 512;" xml:space="preserve">
<g>
	<g>
		<g>
			<path d="M275.402,318.804L275.402,318.804c-10.242-5.573-18.823-13.764-24.866-23.736c-3.047-5.745-5.078-11.974-6.004-18.411
				c-5.465,6.716-9.646,14.381-12.335,22.612c-4.694,15.107-5.53,31.148-2.433,46.661c0.628,3.425-0.745,6.909-3.54,8.986
				c-2.795,2.077-6.527,2.385-9.625,0.795c-4.805-2.49-9.049-5.939-12.469-10.134c-4.761,14.31-2.566,30.023,5.936,42.48
				c8.501,12.457,22.333,20.229,37.395,21.011l0.376,0.012c4.926,0.347,9.876-0.091,14.664-1.298
				c19.032-4.895,33.26-20.744,36.08-40.193C301.4,348.141,292.26,328.903,275.402,318.804z"/>
			<path d="M256,0C114.615,0,0,114.615,0,256s114.615,256,256,256s256-114.615,256-256C511.841,114.681,397.319,0.159,256,0z
				 M378.339,308.835c-5.28,54.541-43.611,100.195-96.415,114.835c-9.915,2.536-20.11,3.81-30.344,3.79l-0.177-0.011l-0.108,0.007
				c-2.823-0.003-5.644-0.184-8.445-0.541c-40.607-2.567-77.782-23.65-100.827-57.182c-29.31-46.299-27.074-105.868,5.625-149.839
				c2.228-2.887,5.959-4.173,9.493-3.273s6.195,3.815,6.77,7.416c1.649,9.88,5.973,19.12,12.504,26.714
				c-3.014-29.561,0.094-59.425,9.13-87.732c11.534-36.449,35.409-67.74,67.518-88.491c3.126-1.948,7.116-1.83,10.122,0.3
				c3.005,2.13,4.439,5.855,3.637,9.45c-5.143,22.131-2.29,45.368,8.054,65.598c10.231,16.257,24.544,29.549,41.513,38.549
				C357.453,214.259,381.194,260.403,378.339,308.835z"/>
			<path d="M306.772,203.978c-19.767-10.6-36.341-26.292-48.004-45.451c-9.037-17.314-13.377-36.695-12.585-56.21
				c-20.094,17.898-35.038,40.844-43.281,66.459c-1.506,4.54-2.768,9.213-3.907,13.947c0.002,0.079,0.045,0.143,0.045,0.223
				c-0.018,1.357-0.342,2.692-0.947,3.906c-5.653,27.48-5.844,55.804-0.562,83.358c0.628,3.425-0.745,6.91-3.54,8.986
				s-6.528,2.385-9.626,0.795c-14.03-7.336-25.326-18.994-32.214-33.25c-18.347,35.91-16.394,78.834,5.138,112.929
				c8.859,13.233,20.537,24.341,34.198,32.525c-12.077-23.326-9.832-51.492,5.789-72.61c3.061-3.973,8.754-4.732,12.75-1.701
				c0.61-8.29,2.227-16.475,4.813-24.375c5.919-18.654,18.155-34.661,34.603-45.268c3.126-1.948,7.116-1.83,10.122,0.3
				s4.439,5.855,3.637,9.45c-2.195,9.587-0.977,19.638,3.442,28.424c4.573,7.1,10.903,12.899,18.375,16.835
				c21.324,13.429,33.645,37.402,32.152,62.558c-0.819,9.097-3.547,17.92-8.006,25.892c28.886-18.918,47.624-49.924,50.944-84.293
				C362.524,265.783,342.084,226.146,306.772,203.978z"/>
		</g>
	</g>
</g>
<g>
</g>
<g>
</g>
<g>
</g>
<g>
</g>
<g>
</g>
<g>
</g>
<g>
</g>
<g>
</g>
<g>
</g>
<g>
</g>
<g>
</g>
<g>
</g>
<g>
</g>
<g>
</g>
<g>
</g>
</svg>
