<?xml version="1.0" encoding="iso-8859-1"?>
<!-- Generator: Adobe Illustrator 19.0.0, SVG Export Plug-In . SVG Version: 6.00 Build 0)  -->
<svg version="1.1" id="Capa_1" xmlns="http://www.w3.org/2000/svg" xmlns:xlink="http://www.w3.org/1999/xlink" x="0px" y="0px"
	 viewBox="0 0 512 512" style="enable-background:new 0 0 512 512;" xml:space="preserve">
<g>
	<g>
		<polygon points="504.263,257.221 459.573,257.221 459.743,408.929 504.434,408.929 		"/>
	</g>
</g>
<g>
	<g>
		<path d="M504.467,438.928h-44.691l0.024,21.196c0.003,2.273,0.675,4.494,1.934,6.386l10.718,16.114
			c4.556,6.85,14.608,6.878,19.203,0.054l10.866-16.138c1.287-1.911,1.973-4.162,1.97-6.466L504.467,438.928z"/>
	</g>
</g>
<g>
	<g>
		<path d="M504.22,218.625c-0.016-12.124-10.034-21.979-22.375-22.01c-12.341-0.032-22.332,9.771-22.316,21.896l0.01,8.71h44.691
			L504.22,218.625z"/>
	</g>
</g>
<g>
	<g>
		<path d="M362.232,0H52.509c-24.813,0-45,20.187-45,45v422c0,24.813,20.187,45,45,45h309.723c24.813,0,45-20.187,45-45V45
			C407.232,20.187,387.045,0,362.232,0z M77.747,293.789c0-8.284,6.716-15,15-15h141.439c8.284,0,15,6.716,15,15s-6.716,15-15,15
			H92.747C84.463,308.789,77.747,302.073,77.747,293.789z M285.561,441.396c-28.373,0-51.375-22.567-51.375-50.405
			c0-27.838,23.002-50.405,51.375-50.405c28.374,0,51.375,22.567,51.375,50.405S313.934,441.396,285.561,441.396z M322.02,244.086
			H92.747c-8.284,0-15-6.716-15-15s6.716-15,15-15H322.02c8.284,0,15,6.716,15,15S330.304,244.086,322.02,244.086z M322.02,179.383
			H92.747c-8.284,0-15-6.716-15-15s6.716-15,15-15H322.02c8.284,0,15,6.716,15,15S330.304,179.383,322.02,179.383z M322.02,114.68
			H92.747c-8.284,0-15-6.716-15-15s6.716-15,15-15H322.02c8.284,0,15,6.716,15,15S330.304,114.68,322.02,114.68z"/>
	</g>
</g>
<g>
</g>
<g>
</g>
<g>
</g>
<g>
</g>
<g>
</g>
<g>
</g>
<g>
</g>
<g>
</g>
<g>
</g>
<g>
</g>
<g>
</g>
<g>
</g>
<g>
</g>
<g>
</g>
<g>
</g>
</svg>
