<svg xmlns="http://www.w3.org/2000/svg" viewBox="0 0 516.14 499"><defs><style>.cls-1{fill:#ff9e1f;}.cls-2{fill:#fff1d8;}.cls-3,.cls-4{fill:none;}.cls-4,.cls-5,.cls-7{stroke:#000;}.cls-4{stroke-miterlimit:10;stroke-width:8px;}.cls-5,.cls-7{stroke-linejoin:round;stroke-width:4px;}.cls-6{fill:#f97472;}.cls-7{stroke-linecap:square;}</style></defs><g id="Layer_3" data-name="Layer 3"><path class="cls-1" d="M1855.69,975.38c-15-7-57.53,14.72-74,23-17,8.54-45.25,29.5-45.25,29.5s-41.75-24-113.69-22.89c-71.94-1.11-113.69,22.89-113.69,22.89s-28.27-21-45.25-29.5c-16.47-8.28-59-30-74-23-30.31,14.14-20.22,71.5-16.5,93.5,4,23.55,20.25,91,20.25,91s-18.42,73.91-18,120.82c0,.52,0,1,0,1.55,0,.33,0,.66,0,1,0,1.2.07,2.38.13,3.53l.06,1.17a2.83,2.83,0,0,0,0,.29c0,.42,0,.84.08,1.25s.07,1,.12,1.56c5-52.3,42.2-68,71.69-60.28,37.87,10,52.13,38.33,80.25,42.47,51,7.5,51.19-22.87,94.81-22.87s43.81,30.37,94.81,22.87c28.12-4.14,42.37-32.5,80.25-42.47,29.49-7.76,66.74,8,71.69,60.28q.07-.77.12-1.56c0-.41.06-.83.08-1.25a2.83,2.83,0,0,0,0-.29l.06-1.17c.06-1.15.1-2.33.13-3.53,0-.32,0-.65,0-1,0-.52,0-1,0-1.55.41-46.91-18-120.82-18-120.82s16.26-67.45,20.25-91C1875.91,1046.88,1886,989.52,1855.69,975.38ZM1443.19,1085c-18.5,21-39.75,55.83-39.75,55.83s-18.91-61.38-22.13-83.39c-3.56-24.38-5.43-58.13,11.25-66.75,12.15-6.28,53.83,16.51,64.69,23.62,12.14,7.94,38.44,28.94,38.44,28.94S1458.81,1067.24,1443.19,1085Zm126.62,155.75a.71.71,0,0,1-.29-.07c-2.45-.88-12.29-11.25-23.15-14.87-17-5.68-35.61.4-37.2.94,1.84-.73,27.53-10.6,40.95-3.19S1571.56,1240.72,1569.81,1240.72Zm6-47c-3.53,10.61-16.12,11.29-32.07,6s-29.23-14.56-25.71-25.18,19.32-14.92,35.27-9.62S1579.28,1183.11,1575.76,1193.73Zm93.48,0c-3.52-10.62,6.56-23.52,22.51-28.81s31.75-1,35.27,9.62-9.75,19.88-25.71,25.18S1672.77,1204.34,1669.24,1193.73Zm29.89,32c-11.35,3.78-21.58,14.94-23.44,14.94s6.31-9.81,19.69-17.19,39.11,2.46,40.95,3.19C1734.74,1226.18,1716.16,1220.1,1699.13,1225.78ZM1864,1057.41c-3.22,22-22.13,83.39-22.13,83.39s-21.25-34.83-39.75-55.83c-15.61-17.73-52.5-41.75-52.5-41.75s26.3-21,38.44-28.94c10.87-7.11,52.54-29.9,64.69-23.62C1869.47,999.28,1867.6,1033,1864,1057.41Z" transform="translate(-1364.68 -970.01)"/><path class="cls-2" d="M1797.81,1230.75c-37.88,10-52.13,38.33-80.25,42.47-51,7.5-51.19-22.87-94.81-22.87s-43.81,30.37-94.81,22.87c-28.12-4.14-42.38-32.5-80.25-42.47-29.49-7.76-66.74,8-71.69,60.28v0c.6,7.08,1.81,13.18,3.81,17.81,19.47,45.09,100.21,101.73,142,123.25,12.14,6.25,34.39,15.27,50.5,20.75,14.5,4.94,37,12.38,50.44,12.12,13.94.26,36.16-7.23,50.44-12.12,16.1-5.51,38.37-14.5,50.5-20.75,41.79-21.52,122.53-78.16,142-123.25,2-4.63,3.21-10.73,3.81-17.81v0C1864.55,1238.73,1827.3,1223,1797.81,1230.75Zm-205.51,81.41c4.3-5.87,21.75-9,30.45-9s26.15,3.09,30.45,9c2.38,3.25,2.33,16.66-4,27.31-7.53,12.65-21.81,22.27-26.44,22.27s-18.91-9.62-26.44-22.27C1590,1328.82,1589.92,1315.41,1592.3,1312.16Zm99.57,65.12c-12.52,8-29.42,15.07-30.72,15.6.93,4.63,9.41,52.84-38.4,52.84s-39.3-48.35-38.4-52.86c-1.75-.73-18.33-7.7-30.66-15.58-17.36-11.12-40.5-41-35.8-44.39,4.5-3.27,26.79,18.58,41.25,27,11.38,6.64,19,11.3,31.94,14.6,9.31,2.37,14.71,4.24,19.45,3.56,8.6-1.25.65-15.4,12.21-15.91h.09c11.56.51,3.61,14.66,12.21,15.91,4.74.68,10.14-1.19,19.45-3.56,12.91-3.3,20.55-8,31.94-14.6,14.45-8.43,36.75-30.28,41.25-27C1732.38,1336.3,1709.24,1366.16,1691.87,1377.28Z" transform="translate(-1364.68 -970.01)"/><path class="cls-3" d="M1596.31,1339.47c-6.34-10.65-6.39-24.06-4-27.31,4.3-5.87,21.75-9,30.45-9s26.15,3.09,30.45,9c2.38,3.25,2.33,16.66-4,27.31-7.53,12.65-21.81,22.27-26.44,22.27S1603.84,1352.12,1596.31,1339.47Z" transform="translate(-1364.68 -970.01)"/><path class="cls-3" d="M1727.68,1332.89c4.7,3.41-18.44,33.27-35.81,44.39-12.52,8-29.42,15.07-30.72,15.6.93,4.63,9.41,52.84-38.4,52.84s-39.3-48.35-38.4-52.86c-1.75-.73-18.33-7.7-30.66-15.58-17.36-11.12-40.5-41-35.8-44.39,4.5-3.27,26.79,18.58,41.25,27,11.38,6.64,19,11.3,31.94,14.6,9.31,2.37,14.71,4.24,19.45,3.56,8.6-1.25.65-15.4,12.21-15.91h.09c11.56.51,3.61,14.66,12.21,15.91,4.74.68,10.14-1.19,19.45-3.56,12.91-3.3,20.55-8,31.94-14.6C1700.88,1351.47,1723.18,1329.62,1727.68,1332.89Z" transform="translate(-1364.68 -970.01)"/><path class="cls-3" d="M1872.19,1068.88c-4,23.55-20.25,91-20.25,91s18.42,73.91,18,120.82c0,.52,0,1,0,1.55,0,.33,0,.66,0,1,0,1.2-.07,2.38-.13,3.53l-.06,1.17a2.83,2.83,0,0,1,0,.29c0,.42,0,.84-.08,1.25s-.07,1-.12,1.56c-5-52.3-42.2-68-71.69-60.28-37.88,10-52.13,38.33-80.25,42.47-51,7.5-51.19-22.87-94.81-22.87s-43.81,30.37-94.81,22.87c-28.12-4.14-42.38-32.5-80.25-42.47-29.49-7.76-66.74,8-71.69,60.28q-.07-.77-.12-1.56c0-.41-.06-.83-.08-1.25a2.83,2.83,0,0,1,0-.29l-.06-1.17c-.06-1.15-.1-2.33-.13-3.53,0-.32,0-.65,0-1,0-.52,0-1,0-1.55-.41-46.91,18-120.82,18-120.82s-16.26-67.45-20.25-91c-3.72-22-13.81-79.36,16.5-93.5,15-7,57.53,14.72,74,23,17,8.54,45.25,29.5,45.25,29.5s41.75-24,113.69-22.89c71.94-1.11,113.69,22.89,113.69,22.89s28.27-21,45.25-29.5c16.47-8.28,59-30,74-23C1886,989.52,1875.91,1046.88,1872.19,1068.88Z" transform="translate(-1364.68 -970.01)"/><path class="cls-4" d="M1855.69,975.38c-15-7-57.53,14.72-74,23-17,8.54-45.25,29.5-45.25,29.5s-41.75-24-113.69-22.89c-71.94-1.11-113.69,22.89-113.69,22.89s-28.27-21-45.25-29.5c-16.47-8.28-59-30-74-23-30.31,14.14-20.22,71.5-16.5,93.5,4,23.55,20.25,91,20.25,91s-28.58,114.66-13.75,149c19.47,45.09,100.21,101.73,142,123.25,12.14,6.25,34.39,15.27,50.5,20.75,14.5,4.94,37,12.38,50.44,12.12,13.94.26,36.16-7.23,50.44-12.12,16.1-5.51,38.37-14.5,50.5-20.75,41.79-21.52,122.53-78.16,142-123.25,14.83-34.34-13.75-149-13.75-149s16.26-67.45,20.25-91C1875.91,1046.88,1886,989.52,1855.69,975.38Z" transform="translate(-1364.68 -970.01)"/></g><g id="Layer_4" data-name="Layer 4"><path class="cls-5" d="M1736.33,1226.72c-1.59-.54-20.17-6.62-37.2-.94-11.35,3.78-21.58,14.94-23.44,14.94s6.31-9.81,19.69-17.19S1734.49,1226,1736.33,1226.72Z" transform="translate(-1364.68 -970.01)"/><path class="cls-6" d="M1622.75,1445.72c-47.88,0-39.3-48.35-38.4-52.86,0-.22.07-.34.07-.34s11.78-7.39,32.89-9c0,0,0,.14,0,.4.37,3.26,2.91,25.31,5.4,25.31s5-22,5.4-25.31c0-.26,0-.4,0-.4,21.11,1.59,32.89,9,32.89,9s0,.12.07.36C1662.08,1397.51,1670.56,1445.72,1622.75,1445.72Z" transform="translate(-1364.68 -970.01)"/><path d="M1628.19,1383.54s-2.75,25.71-5.44,25.71-5.44-25.71-5.44-25.71c1.75-.13,3.56-.23,5.44-.27S1626.44,1383.41,1628.19,1383.54Z" transform="translate(-1364.68 -970.01)"/><path class="cls-3" d="M1622.75,1011.83" transform="translate(-1364.68 -970.01)"/><path class="cls-3" d="M1622.75,1474.4" transform="translate(-1364.68 -970.01)"/><path class="cls-7" d="M1569.81,1240.72l-.29-.07c-2.45-.88-12.29-11.25-23.15-14.87-17-5.68-35.61.4-37.2.94,1.84-.73,27.53-10.6,40.95-3.19S1571.56,1240.72,1569.81,1240.72Z" transform="translate(-1364.68 -970.01)"/><path d="M1649.19,1339.47c-7.53,12.65-21.81,22.27-26.44,22.27s-18.91-9.62-26.44-22.27c-6.34-10.65-6.39-24.06-4-27.31,4.3-5.87,21.75-9,30.45-9s26.15,3.09,30.45,9C1655.58,1315.41,1655.53,1328.82,1649.19,1339.47Z" transform="translate(-1364.68 -970.01)"/><path class="cls-3" d="M1376,1291.07c-.09,1-.18,2.07-.25,3.13" transform="translate(-1364.68 -970.01)"/><path class="cls-3" d="M1869.75,1294.2c-.07-1.06-.16-2.1-.25-3.13" transform="translate(-1364.68 -970.01)"/><path class="cls-2" d="M1575.76,1193.73c-3.53,10.61-16.12,11.29-32.07,6s-29.23-14.56-25.71-25.18,19.32-14.92,35.27-9.62S1579.28,1183.11,1575.76,1193.73Z" transform="translate(-1364.68 -970.01)"/><path class="cls-2" d="M1701.31,1199.72c-16,5.3-28.54,4.62-32.07-6s6.56-23.52,22.51-28.81,31.75-1,35.27,9.62S1717.27,1194.42,1701.31,1199.72Z" transform="translate(-1364.68 -970.01)"/><path class="cls-2" d="M1495.69,1043.22s-36.88,24-52.5,41.75c-18.5,21-39.75,55.83-39.75,55.83s-18.91-61.38-22.13-83.39c-3.56-24.38-5.43-58.13,11.25-66.75,12.15-6.28,53.83,16.51,64.69,23.62C1469.39,1022.22,1495.69,1043.22,1495.69,1043.22Z" transform="translate(-1364.68 -970.01)"/><path class="cls-2" d="M1864,1057.41c-3.22,22-22.13,83.39-22.13,83.39s-21.25-34.83-39.75-55.83c-15.61-17.73-52.5-41.75-52.5-41.75s26.3-21,38.44-28.94c10.87-7.11,52.54-29.9,64.69-23.62C1869.47,999.28,1867.6,1033,1864,1057.41Z" transform="translate(-1364.68 -970.01)"/><path class="cls-3" d="M1710,1430.75" transform="translate(-1364.68 -970.01)"/><path d="M1691.87,1377.28c-12.52,8-29.42,15.07-30.72,15.6l-.08,0s-11.78-7.39-32.89-9h0c-1.71-.13-3.48-.23-5.32-.27h-.09v-21.52h.09c11.56.51,3.61,14.66,12.21,15.91,4.74.68,10.14-1.19,19.45-3.56,12.91-3.3,20.55-8,31.94-14.6,14.45-8.43,36.75-30.28,41.25-27C1732.38,1336.3,1709.24,1366.16,1691.87,1377.28Z" transform="translate(-1364.68 -970.01)"/><path d="M1622.83,1362.14v21.53h-.09c-1.85,0-3.63.14-5.35.27h0c-21.09,1.6-32.85,9-32.85,9l-.15-.06c-1.75-.73-18.33-7.7-30.66-15.58-17.36-11.12-40.5-41-35.8-44.39,4.5-3.27,26.79,18.58,41.25,27,11.38,6.64,19,11.3,31.94,14.6,9.31,2.37,14.71,4.24,19.45,3.56,8.6-1.25.65-15.4,12.21-15.91Z" transform="translate(-1364.68 -970.01)"/></g></svg>